<svg width="24" height="24" viewBox="0 0 24 24" fill="none" xmlns="http://www.w3.org/2000/svg">
<path fill-rule="evenodd" clip-rule="evenodd" d="M6.08376 4.08376C6.51413 1.75992 8.55154 0 11 0H17C19.7614 0 22 2.23858 22 5V11C22 13.4485 20.2401 15.4859 17.9162 15.9162C17.4859 18.2401 15.4485 20 13 20H7C4.23858 20 2 17.7614 2 15V9C2 6.55154 3.75992 4.51413 6.08376 4.08376ZM8.17071 4H13C15.7614 4 18 6.23858 18 9V13.8293C19.1652 13.4175 20 12.3062 20 11V5C20 3.34315 18.6569 2 17 2H11C9.69378 2 8.58254 2.83481 8.17071 4ZM7 6C5.34315 6 4 7.34315 4 9V15C4 16.6569 5.34315 18 7 18H13C14.6569 18 16 16.6569 16 15V9C16 7.34315 14.6569 6 13 6H7Z" fill="white"/>
</svg>
