<svg width="20" height="20" viewBox="0 0 20 20" fill="none" xmlns="http://www.w3.org/2000/svg">
<mask id="path-1-inside-1_121_43" fill="white">
<path d="M0 4.48148C0 2.82463 1.34315 1.48148 3 1.48148H17C18.6569 1.48148 20 2.82463 20 4.48148V17C20 18.6568 18.6569 20 17 20H3C1.34315 20 0 18.6569 0 17V4.48148Z"/>
</mask>
<path d="M0 4.48148C0 2.82463 1.34315 1.48148 3 1.48148H17C18.6569 1.48148 20 2.82463 20 4.48148V17C20 18.6568 18.6569 20 17 20H3C1.34315 20 0 18.6569 0 17V4.48148Z" fill="#D9D9D9"/>
<path d="M-1 2.48148C-1 0.272341 0.790861 -1.51852 3 -1.51852H17C19.2091 -1.51852 21 0.272341 21 2.48148L19 4.48148C19 4.48148 18.1046 4.48148 17 4.48148H3C1.89543 4.48148 1 4.48148 1 4.48148L-1 2.48148ZM21 17C21 19.2091 19.2091 21 17 21H3C0.790861 21 -1 19.2091 -1 17H1C1 18.1046 1.89543 19 3 19H17C18.1046 19 19 18.1046 19 17H21ZM3 21C0.790861 21 -1 19.2091 -1 17V2.48148C-1 0.272341 0.790861 -1.51852 3 -1.51852V4.48148C1.89543 4.48148 1 4.48148 1 4.48148V17C1 18.1046 1.89543 19 3 19V21ZM17 -1.51852C19.2091 -1.51852 21 0.272341 21 2.48148V17C21 19.2091 19.2091 21 17 21V19C18.1046 19 19 18.1046 19 17V4.48148C19 4.48148 18.1046 4.48148 17 4.48148V-1.51852Z" fill="#FB7E54" mask="url(#path-1-inside-1_121_43)"/>
<rect x="4" width="2.4" height="1.48148" fill="#FB7E54"/>
<rect x="12.7998" width="2.4" height="1.48148" fill="#FB7E54"/>
</svg>
