<svg width="46" height="27" viewBox="0 0 46 27" fill="none" xmlns="http://www.w3.org/2000/svg">
<rect opacity="0.5" width="46" height="27" rx="2" fill="#FFCCBB"/>
<mask id="path-2-inside-1_121_48" fill="white">
<path d="M14 9.33333C14 7.67648 15.3431 6.33333 17 6.33333H29C30.6569 6.33333 32 7.67648 32 9.33333V20C32 21.6569 30.6569 23 29 23H17C15.3431 23 14 21.6569 14 20V9.33333Z"/>
</mask>
<path d="M14 9.33333C14 7.67648 15.3431 6.33333 17 6.33333H29C30.6569 6.33333 32 7.67648 32 9.33333V20C32 21.6569 30.6569 23 29 23H17C15.3431 23 14 21.6569 14 20V9.33333Z" fill="#D9D9D9"/>
<path d="M13 7.33333C13 5.12419 14.7909 3.33333 17 3.33333H29C31.2091 3.33333 33 5.12419 33 7.33333L31 9.33333C31 9.33333 30.1046 9.33333 29 9.33333H17C15.8954 9.33333 15 9.33333 15 9.33333L13 7.33333ZM33 20C33 22.2091 31.2091 24 29 24H17C14.7909 24 13 22.2091 13 20H15C15 21.1046 15.8954 22 17 22H29C30.1046 22 31 21.1046 31 20H33ZM17 24C14.7909 24 13 22.2091 13 20V7.33333C13 5.12419 14.7909 3.33333 17 3.33333V9.33333C15.8954 9.33333 15 9.33333 15 9.33333V20C15 21.1046 15.8954 22 17 22V24ZM29 3.33333C31.2091 3.33333 33 5.12419 33 7.33333V20C33 22.2091 31.2091 24 29 24V22C30.1046 22 31 21.1046 31 20V9.33333C31 9.33333 30.1046 9.33333 29 9.33333V3.33333Z" fill="#FB7E54" mask="url(#path-2-inside-1_121_48)"/>
<rect x="17.6001" y="5" width="2.16" height="1.33333" fill="#FB7E54"/>
<rect x="25.52" y="5" width="2.16" height="1.33333" fill="#FB7E54"/>
</svg>
