<svg width="24" height="24" viewBox="0 0 24 24" fill="none" xmlns="http://www.w3.org/2000/svg">
<path d="M10.3567 0L8.88421 3.5611C8.5897 3.65087 8.32465 3.8005 8.05959 3.95012L4.55495 2.45387L2.43449 4.60848L3.90703 8.16958C3.75978 8.46883 3.64197 8.70823 3.52417 9.00748L0.0195312 10.5037V13.4963L3.52417 14.9925C3.64197 15.2918 3.75978 15.5312 3.90703 15.8304L2.43449 19.3915L4.55495 21.5461L8.05959 20.0499C8.32465 20.1696 8.5897 20.3192 8.88421 20.4389L10.3567 24H13.3018L14.7744 20.4389C15.0394 20.3192 15.3339 20.1995 15.599 20.0499L19.1036 21.5461L21.2241 19.3915L19.7515 15.8304C19.8693 15.5611 20.0166 15.2618 20.1344 14.9925L23.639 13.4963V10.5037L20.1344 9.00748C20.0461 8.73815 19.8988 8.4389 19.7515 8.16958L21.2241 4.60848L19.1036 2.45387L15.599 3.95012C15.3339 3.83042 15.0394 3.6808 14.7744 3.5611L13.3018 0L10.3567 0ZM11.8293 7.4813C14.2737 7.4813 16.2469 9.48628 16.2469 11.9701C16.2469 14.4539 14.2737 16.4589 11.8293 16.4589C9.38487 16.4589 7.41167 14.4539 7.41167 11.9701C7.41167 9.48628 9.38487 7.4813 11.8293 7.4813Z" fill="white"/>
</svg>
