<svg width="24" height="24" viewBox="0 0 24 24" fill="none" xmlns="http://www.w3.org/2000/svg">
<path d="M10.4991 0.0297308C4.85204 0.0297308 0.258301 4.69747 0.258301 10.4355C0.258301 16.1736 4.85204 20.8413 10.4991 20.8413C12.2254 20.8413 13.9225 20.4251 15.3562 19.6224C15.471 19.7628 15.5984 19.8922 15.7366 20.0089L18.6625 22.9819C18.9327 23.2908 19.2622 23.5404 19.6307 23.7152C19.9992 23.8901 20.399 23.9865 20.8055 23.9987C21.2121 24.0109 21.6168 23.9385 21.9948 23.7859C22.3728 23.6334 22.7161 23.404 23.0037 23.1118C23.2913 22.8196 23.517 22.4707 23.6671 22.0866C23.8172 21.7025 23.8885 21.2913 23.8765 20.8782C23.8646 20.4651 23.7696 20.0589 23.5975 19.6844C23.4255 19.31 23.1799 18.9752 22.8759 18.7007L19.9499 15.7276C19.8074 15.5827 19.6505 15.4532 19.4818 15.3411C20.2718 13.8843 20.7692 12.1896 20.7692 10.4058C20.7692 4.66774 16.1755 0 10.5284 0L10.4991 0.0297308ZM10.4991 3.00282C14.5662 3.00282 17.814 6.30294 17.814 10.4355C17.814 12.3978 17.1118 14.2113 15.8829 15.5492C15.8536 15.579 15.8244 15.6087 15.7951 15.6384C15.6569 15.7551 15.5296 15.8845 15.4147 16.0249C14.1273 17.2142 12.3717 17.898 10.4699 17.898C6.4028 17.898 3.15499 14.5978 3.15499 10.4653C3.15499 6.33267 6.4028 3.03255 10.4699 3.03255L10.4991 3.00282Z" fill="white"/>
</svg>
