<svg width="25" height="28" viewBox="0 0 25 28" fill="none" xmlns="http://www.w3.org/2000/svg">
<path d="M10.7003 0C8.81455 0 7.27169 1.56771 7.27169 3.4838H3.84312C1.95741 3.4838 0.414551 5.05151 0.414551 6.9676H24.4146C24.4146 5.05151 22.8717 3.4838 20.986 3.4838H17.5574C17.5574 1.56771 16.0146 0 14.1288 0H10.7003ZM3.84312 10.4514V27.2085C3.84312 27.5917 4.11741 27.8704 4.49455 27.8704H20.3688C20.746 27.8704 21.0203 27.5917 21.0203 27.2085V10.4514H17.5917V22.6447C17.5917 23.6202 16.8374 24.3866 15.8774 24.3866C14.9174 24.3866 14.1631 23.6202 14.1631 22.6447V10.4514H10.7346V22.6447C10.7346 23.6202 9.98026 24.3866 9.02027 24.3866C8.06027 24.3866 7.30598 23.6202 7.30598 22.6447V10.4514H3.87741H3.84312Z" fill="#6EB5C0"/>
</svg>
