<svg width="25" height="24" viewBox="0 0 25 24" fill="none" xmlns="http://www.w3.org/2000/svg">
<path d="M17.0187 0C12.9443 0 9.63759 3.36 9.63759 7.5C9.63759 7.98 9.63759 8.46 9.72616 8.91L0.780273 18V24H9.63759V18H15.5425V15L15.631 14.91C16.0739 15 16.5463 15 17.0187 15C21.0931 15 24.3998 11.64 24.3998 7.5C24.3998 3.36 21.0931 0 17.0187 0ZM18.4949 3C20.1187 3 21.4473 4.35 21.4473 6C21.4473 7.65 20.1187 9 18.4949 9C16.8711 9 15.5425 7.65 15.5425 6C15.5425 4.35 16.8711 3 18.4949 3Z" fill="black"/>
</svg>
