<svg width="25" height="18" viewBox="0 0 25 18" fill="none" xmlns="http://www.w3.org/2000/svg">
<path d="M12.4594 0C4.98969 0 0.561035 9 0.561035 9C0.561035 9 4.98969 18 12.4594 18C19.7519 18 24.1805 9 24.1805 9C24.1805 9 19.7519 0 12.4594 0ZM12.3708 3C15.648 3 18.2757 5.7 18.2757 9C18.2757 12.33 15.648 15 12.3708 15C9.12311 15 6.46591 12.33 6.46591 9C6.46591 5.7 9.12311 3 12.3708 3ZM12.3708 6C10.747 6 9.41835 7.35 9.41835 9C9.41835 10.65 10.747 12 12.3708 12C13.9946 12 15.3232 10.65 15.3232 9C15.3232 8.7 15.2051 8.43 15.1461 8.16C14.9099 8.64 14.4375 9 13.847 9C13.0203 9 12.3708 8.34 12.3708 7.5C12.3708 6.9 12.7251 6.42 13.1975 6.18C12.9318 6.09 12.666 6 12.3708 6Z" fill="black"/>
</svg>
