<svg width="46" height="27" viewBox="0 0 46 27" fill="none" xmlns="http://www.w3.org/2000/svg">
<rect opacity="0.5" width="46" height="27" rx="2" fill="#6EB5C0"/>
<path d="M19.41 15.87H15.045L14.295 18H12.51L16.245 7.56H18.225L21.96 18H20.16L19.41 15.87ZM18.93 14.475L17.235 9.63L15.525 14.475H18.93ZM25.294 10.965C25.584 10.565 25.979 10.24 26.479 9.99C26.989 9.73 27.554 9.6 28.174 9.6C28.904 9.6 29.564 9.775 30.154 10.125C30.744 10.475 31.209 10.975 31.549 11.625C31.889 12.265 32.059 13 32.059 13.83C32.059 14.66 31.889 15.405 31.549 16.065C31.209 16.715 30.739 17.225 30.139 17.595C29.549 17.955 28.894 18.135 28.174 18.135C27.534 18.135 26.964 18.01 26.464 17.76C25.974 17.51 25.584 17.19 25.294 16.8V18H23.584V6.9H25.294V10.965ZM30.319 13.83C30.319 13.26 30.199 12.77 29.959 12.36C29.729 11.94 29.419 11.625 29.029 11.415C28.649 11.195 28.239 11.085 27.799 11.085C27.369 11.085 26.959 11.195 26.569 11.415C26.189 11.635 25.879 11.955 25.639 12.375C25.409 12.795 25.294 13.29 25.294 13.86C25.294 14.43 25.409 14.93 25.639 15.36C25.879 15.78 26.189 16.1 26.569 16.32C26.959 16.54 27.369 16.65 27.799 16.65C28.239 16.65 28.649 16.54 29.029 16.32C29.419 16.09 29.729 15.76 29.959 15.33C30.199 14.9 30.319 14.4 30.319 13.83Z" fill="#006C84"/>
</svg>
