<svg width="46" height="27" viewBox="0 0 46 27" fill="none" xmlns="http://www.w3.org/2000/svg">
<rect opacity="0.5" width="46" height="27" rx="2" fill="#FFCCBB"/>
<path d="M12.675 8.625V7.065H15.795V18H14.07V8.625H12.675ZM19.0891 15.675C20.0491 14.845 20.8041 14.165 21.3541 13.635C21.9141 13.095 22.3791 12.535 22.7491 11.955C23.1191 11.375 23.3041 10.795 23.3041 10.215C23.3041 9.615 23.1591 9.145 22.8691 8.805C22.5891 8.465 22.1441 8.295 21.5341 8.295C20.9441 8.295 20.4841 8.485 20.1541 8.865C19.8341 9.235 19.6641 9.735 19.6441 10.365H17.9941C18.0241 9.225 18.3641 8.355 19.0141 7.755C19.6741 7.145 20.5091 6.84 21.5191 6.84C22.6091 6.84 23.4591 7.14 24.0691 7.74C24.6891 8.34 24.9991 9.14 24.9991 10.14C24.9991 10.86 24.8141 11.555 24.4441 12.225C24.0841 12.885 23.6491 13.48 23.1391 14.01C22.6391 14.53 21.9991 15.135 21.2191 15.825L20.5441 16.425H25.2991V17.85H18.0091V16.605L19.0891 15.675ZM26.7714 9.765C26.8314 8.835 27.1864 8.11 27.8364 7.59C28.4964 7.07 29.3364 6.81 30.3564 6.81C31.0564 6.81 31.6614 6.935 32.1714 7.185C32.6814 7.435 33.0664 7.775 33.3264 8.205C33.5864 8.635 33.7164 9.12 33.7164 9.66C33.7164 10.28 33.5514 10.81 33.2214 11.25C32.8914 11.69 32.4964 11.985 32.0364 12.135V12.195C32.6264 12.375 33.0864 12.705 33.4164 13.185C33.7464 13.655 33.9114 14.26 33.9114 15C33.9114 15.59 33.7764 16.115 33.5064 16.575C33.2364 17.035 32.8364 17.4 32.3064 17.67C31.7764 17.93 31.1414 18.06 30.4014 18.06C29.3214 18.06 28.4314 17.785 27.7314 17.235C27.0414 16.675 26.6714 15.875 26.6214 14.835H28.2714C28.3114 15.365 28.5164 15.8 28.8864 16.14C29.2564 16.47 29.7564 16.635 30.3864 16.635C30.9964 16.635 31.4664 16.47 31.7964 16.14C32.1264 15.8 32.2914 15.365 32.2914 14.835C32.2914 14.135 32.0664 13.64 31.6164 13.35C31.1764 13.05 30.4964 12.9 29.5764 12.9H29.1864V11.49H29.5914C30.4014 11.48 31.0164 11.345 31.4364 11.085C31.8664 10.825 32.0814 10.415 32.0814 9.855C32.0814 9.375 31.9264 8.995 31.6164 8.715C31.3064 8.425 30.8664 8.28 30.2964 8.28C29.7364 8.28 29.3014 8.425 28.9914 8.715C28.6814 8.995 28.4964 9.345 28.4364 9.765H26.7714Z" fill="#FB7E54"/>
</svg>
