<svg width="46" height="27" viewBox="0 0 46 27" fill="none" xmlns="http://www.w3.org/2000/svg">
<rect opacity="0.5" width="46" height="27" rx="2" fill="#006C84"/>
<path d="M12.9 12.39C12.9 10.66 13.19 9.31 13.77 8.34C14.36 7.36 15.37 6.87 16.8 6.87C18.23 6.87 19.235 7.36 19.815 8.34C20.405 9.31 20.7 10.66 20.7 12.39C20.7 14.14 20.405 15.51 19.815 16.5C19.235 17.48 18.23 17.97 16.8 17.97C15.37 17.97 14.36 17.48 13.77 16.5C13.19 15.51 12.9 14.14 12.9 12.39ZM19.02 12.39C19.02 11.58 18.965 10.895 18.855 10.335C18.755 9.775 18.545 9.32 18.225 8.97C17.905 8.61 17.43 8.43 16.8 8.43C16.17 8.43 15.695 8.61 15.375 8.97C15.055 9.32 14.84 9.775 14.73 10.335C14.63 10.895 14.58 11.58 14.58 12.39C14.58 13.23 14.63 13.935 14.73 14.505C14.83 15.075 15.04 15.535 15.36 15.885C15.69 16.235 16.17 16.41 16.8 16.41C17.43 16.41 17.905 16.235 18.225 15.885C18.555 15.535 18.77 15.075 18.87 14.505C18.97 13.935 19.02 13.23 19.02 12.39ZM23.4244 18.105C23.1144 18.105 22.8544 18 22.6444 17.79C22.4344 17.58 22.3294 17.32 22.3294 17.01C22.3294 16.7 22.4344 16.44 22.6444 16.23C22.8544 16.02 23.1144 15.915 23.4244 15.915C23.7244 15.915 23.9794 16.02 24.1894 16.23C24.3994 16.44 24.5044 16.7 24.5044 17.01C24.5044 17.32 24.3994 17.58 24.1894 17.79C23.9794 18 23.7244 18.105 23.4244 18.105ZM25.9025 8.625V7.065H29.0225V18H27.2975V8.625H25.9025Z" fill="#E2E8E4"/>
</svg>
